<svg width="45" height="45" viewBox="0 0 45 45" fill="none" xmlns="http://www.w3.org/2000/svg">
<circle cx="22.5" cy="22.5" r="22.5" fill="#2C3136"/>
<path d="M16 19C16 20.5913 16.6321 22.1174 17.7574 23.2426C18.8826 24.3679 20.4087 25 22 25C23.5913 25 25.1174 24.3679 26.2426 23.2426C27.3679 22.1174 28 20.5913 28 19C28 17.4087 27.3679 15.8826 26.2426 14.7574C25.1174 13.6321 23.5913 13 22 13C20.4087 13 18.8826 13.6321 17.7574 14.7574C16.6321 15.8826 16 17.4087 16 19Z" stroke="white" stroke-width="2" stroke-linecap="round" stroke-linejoin="round"/>
<path d="M22 25L25.4 30.89L26.998 27.657L30.596 27.889L27.196 22M16.802 22L13.402 27.89L17 27.657L18.598 30.889L21.998 25" stroke="white" stroke-width="2" stroke-linecap="round" stroke-linejoin="round"/>
</svg>
