<svg width="169" height="51" viewBox="0 0 169 51" fill="none" xmlns="http://www.w3.org/2000/svg">
<path d="M25.9488 2.61536C22.8907 2.61536 19.8624 3.20735 17.0371 4.35733C14.2117 5.50745 11.6446 7.19306 9.4821 9.31806C7.3197 11.4432 5.60442 13.9659 4.43406 16.7424C3.26383 19.5188 2.66142 22.4948 2.66142 25.5C2.66142 28.5052 3.26383 31.4811 4.43406 34.2576C5.60442 37.0341 7.3197 39.5567 9.4821 41.6819C11.6446 43.8069 14.2117 45.4925 17.0371 46.6426C19.8624 47.7926 22.8907 48.3846 25.9488 48.3846V36.9423C24.4197 36.9423 22.9056 36.6463 21.4929 36.0712C20.0803 35.4962 18.7967 34.6534 17.7155 33.5909C16.6343 32.5284 15.7766 31.267 15.1915 29.8788C14.6063 28.4905 14.3051 27.0026 14.3051 25.5C14.3051 23.9973 14.6063 22.5094 15.1915 21.1212C15.7766 19.7329 16.6343 18.4715 17.7155 17.409C18.7967 16.3465 20.0803 15.5037 21.4929 14.9287C22.9056 14.3536 24.4197 14.0577 25.9488 14.0577V2.61536Z" fill="#21A038"/>
<path d="M25.9489 33.1281C30.2361 33.1281 33.7114 29.713 33.7114 25.5C33.7114 21.287 30.2361 17.8718 25.9489 17.8718C21.6618 17.8718 18.1865 21.287 18.1865 25.5C18.1865 29.713 21.6618 33.1281 25.9489 33.1281Z" fill="#21A038"/>
<path d="M2.66142 25.5C2.66142 28.5052 3.26383 31.4811 4.43406 34.2576C5.60442 37.0341 7.3197 39.5568 9.4821 41.6819C11.6446 43.8069 14.2117 45.4925 17.0371 46.6426C19.8624 47.7926 22.8907 48.3846 25.9488 48.3846C29.0069 48.3846 32.0352 47.7926 34.8606 46.6426C37.6859 45.4925 40.253 43.8069 42.4155 41.6819C44.5779 39.5568 46.2932 37.0341 47.4636 34.2576C48.6338 31.4811 49.2362 28.5052 49.2362 25.5H37.5925C37.5925 27.0027 37.2914 28.4906 36.7061 29.8788C36.121 31.2671 35.2634 32.5285 34.1822 33.591C33.101 34.6535 31.8174 35.4963 30.4047 36.0713C28.992 36.6464 27.4779 36.9423 25.9488 36.9423C24.4197 36.9423 22.9056 36.6464 21.4929 36.0713C20.0803 35.4963 18.7967 34.6535 17.7155 33.591C16.6343 32.5285 15.7766 31.2671 15.1915 29.8788C14.6063 28.4906 14.3051 27.0027 14.3051 25.5H2.66142Z" fill="#21A038"/>
<path d="M33.7114 25.5C33.7114 23.4769 32.8935 21.5366 31.4379 20.106C29.9821 18.6754 28.0077 17.8717 25.949 17.8717C23.8902 17.8717 21.9158 18.6754 20.4601 20.106C19.0043 21.5366 18.1864 23.4769 18.1864 25.5H25.949H33.7114Z" fill="#21A038"/>
<path d="M61.3984 16.902H58.5061V32.6924H61.3984V16.902Z" fill="#2C3136"/>
<path d="M63.287 27.098C63.287 30.7523 65.858 33.0081 69.2553 33.0081C72.6526 33.0081 75.2235 30.7523 75.2235 27.098C75.2235 23.4436 72.6526 21.1879 69.2553 21.1879C65.858 21.1879 63.287 23.4436 63.287 27.098ZM66.1793 27.098C66.1793 24.9324 67.4648 23.6692 69.2553 23.6692C71.0457 23.6692 72.3312 24.9324 72.3312 27.098C72.3312 29.2635 71.0457 30.5268 69.2553 30.5268C67.4648 30.5268 66.1793 29.2635 66.1793 27.098Z" fill="#2C3136"/>
<path d="M85.5592 21.5037V23.015H85.3297C84.6411 22.0451 83.5392 21.1879 81.5651 21.1879C78.8565 21.1879 76.4233 23.4436 76.4233 26.9175C76.4233 30.3914 78.8565 32.6472 81.5651 32.6472C83.5392 32.6472 84.6411 31.7674 85.2838 30.8877H85.5133V31.9704C85.5133 34.136 84.2279 35.1285 82.3456 35.1285C80.4633 35.1285 79.4992 34.136 79.1089 32.8501L76.5151 33.9555C77.1119 35.6473 78.8565 37.5196 82.3915 37.5196C86.0183 37.5196 88.4056 35.6473 88.4056 32.0381V21.5037H85.5592ZM82.4374 30.2109C80.6469 30.2109 79.3156 28.9477 79.3156 26.9175C79.3156 24.8873 80.6469 23.6241 82.4374 23.6241C84.2279 23.6241 85.5592 24.8873 85.5592 26.9175C85.5592 28.9477 84.2279 30.2109 82.4374 30.2109Z" fill="#2C3136"/>
<path d="M90.2767 27.098C90.2767 30.7523 92.8477 33.0081 96.245 33.0081C99.6423 33.0081 102.213 30.7523 102.213 27.098C102.213 23.4436 99.6423 21.1879 96.245 21.1879C92.8477 21.1879 90.2767 23.4436 90.2767 27.098ZM93.169 27.098C93.169 24.9324 94.4545 23.6692 96.245 23.6692C98.0354 23.6692 99.3209 24.9324 99.3209 27.098C99.3209 29.2635 98.0354 30.5268 96.245 30.5268C94.4545 30.5268 93.169 29.2635 93.169 27.098Z" fill="#2C3136"/>
<path d="M104.483 18.2554C104.483 19.4059 105.379 20.1954 106.527 20.1954C107.674 20.1954 108.57 19.4059 108.57 18.2554C108.57 17.105 107.674 16.3154 106.527 16.3154C105.379 16.3154 104.483 17.105 104.483 18.2554ZM107.972 21.5037H105.081V32.6923H107.972V21.5037Z" fill="#2C3136"/>
<path d="M110.55 37.2038H113.443V31.2486H113.672C114.315 32.1509 115.416 33.0081 117.391 33.0081C120.099 33.0081 122.533 30.7523 122.533 27.098C122.533 23.4436 120.099 21.1879 117.391 21.1879C115.416 21.1879 114.315 22.0451 113.627 23.0151H113.396V21.5037H110.55V37.2038ZM116.518 30.5719C114.728 30.5719 113.396 29.3086 113.396 27.098C113.396 24.8873 114.728 23.6241 116.518 23.6241C118.309 23.6241 119.64 24.8873 119.64 27.098C119.64 29.3086 118.309 30.5719 116.518 30.5719Z" fill="#2C3136"/>
<path d="M124.22 24.6393C124.22 26.8499 126.102 27.662 128.489 28.1131L129.087 28.2259C130.509 28.4966 131.152 28.835 131.152 29.5568C131.152 30.2787 130.509 30.8426 129.179 30.8426C127.846 30.8426 126.769 30.3012 126.469 28.677L123.806 29.3538C124.198 31.6998 126.194 33.0081 129.179 33.0081C132.07 33.0081 133.953 31.6773 133.953 29.3313C133.953 26.9851 132.025 26.3536 129.454 25.8574L128.857 25.7445C127.663 25.5189 127.02 25.2031 127.02 24.4588C127.02 23.7821 127.618 23.3534 128.719 23.3534C129.821 23.3534 130.601 23.8046 130.877 25.0227L133.494 24.2332C132.943 22.4286 131.268 21.1879 128.719 21.1879C126.01 21.1879 124.22 22.4286 124.22 24.6393Z" fill="#2C3136"/>
<path d="M146.945 32.6923V21.5037H144.053V27.2784C144.053 29.3537 143.021 30.5719 141.252 30.5719C139.691 30.5719 138.82 29.7373 138.82 28.0454V21.5037H135.927V28.1807C135.927 30.9554 137.695 32.8727 140.358 32.8727C142.446 32.8727 143.41 31.9704 143.87 31.023H144.098V32.6923H146.945Z" fill="#2C3136"/>
<path d="M149.51 21.5037V32.6923H152.403V26.0152C152.403 24.4813 153.138 23.6241 154.469 23.6241C155.617 23.6241 156.305 24.2557 156.305 25.4739V32.6923H159.198V26.0152C159.198 24.4813 159.933 23.6241 161.263 23.6241C162.412 23.6241 163.1 24.2557 163.1 25.4739V32.6923H165.993V25.3385C165.993 22.6316 164.293 21.3232 162.181 21.3232C160.322 21.3232 159.473 22.1353 158.923 23.0827H158.692C158.164 22.0226 157.223 21.3232 155.57 21.3232C153.918 21.3232 153.022 22.0451 152.587 22.9023H152.357V21.5037H149.51Z" fill="#2C3136"/>
</svg>
